<svg xmlns="http://www.w3.org/2000/svg" viewBox="0 0 100 100">
  <!-- Kopfumriss -->
  <path d="M30,50 Q40,20 70,30 Q90,45 75,65 Q60,80 40,70 Q25,65 30,50" fill="#FFD700" stroke="#000" stroke-width="1.5"/>
  
  <!-- Auge -->
  <circle cx="65" cy="45" r="6" fill="#000"/>
  <circle cx="65" cy="45" r="2" fill="#FFF"/>
  
  <!-- Detailierter Schnabel -->
  <path d="M25 45 Q35 50 45 45 Q40 40 25 45" fill="#FF6600"/>
  <path d="M45 45 L25 45 L35 50 Z" stroke="#CC5500" stroke-width="1"/>
  
  <!-- Ausdrucksvoller Kamm -->
  <path d="M50 10 L55 25 L60 15 L65 30 L70 20 L75 35 L65 40 L50 30 L35 40 L25 35 L30 20 L35 30 L40 15 L45 25 Z" fill="#C00"/>
  
  <!-- Kehllappen mit Details -->
  <path d="M40 65 Q50 80 60 65 Q55 75 45 75 Q40 70 40 65" fill="#A00"/>
  <path d="M45 65 L50 70 L55 65" stroke="#800" stroke-width="1.2" fill="none"/>
</svg>